<svg width="151" height="63" xmlns="http://www.w3.org/2000/svg">

 <g>
  <title>background</title>
  <rect fill="none" id="canvas_background" height="65" width="153" y="-1" x="-1"/>
 </g>
 <g>
  <title>Layer 1</title>
  <path id="svg_1" d="m8.810207,7.126719c-0.165,0.189 -0.165,0.455 -0.033,0.652c0.21,-0.267 0.413,-0.537 0.626,-0.795c-0.201,-0.077 -0.442,-0.031 -0.593,0.143m32.634,5.473c0.12,-0.269 0,-0.588 -0.277,-0.711l-0.577,-0.261c0.251,0.388 0.486,0.775 0.707,1.166c0.065,-0.052 0.112,-0.116 0.147,-0.194m-11.071,-10.797c-0.201,-0.081 -0.423,-0.026 -0.567,0.113c0.298,0.146 0.606,0.295 0.9,0.455c0.033,-0.238 -0.099,-0.478 -0.333,-0.568m-28.192,20.996c-0.168,0.248 -0.088,0.58 0.16,0.74c0.046,0.029 0.095,0.041 0.137,0.055c0.056,-0.516 0.115,-1.041 0.206,-1.579c-0.173,0.262 -0.344,0.524 -0.503,0.784m39.116,-10.004c-0.149,0.127 -0.369,0.164 -0.558,0.076l-1.93,-0.871c-3.142,-1.43 -6.692,-3.047 -10.89,-3.981c-3.641,-0.808 -6.437,-0.437 -8.859,0.269c0.012,1.162 0.35,4.817 3.957,5.574c0.898,0.186 1.827,0.154 2.917,0.119c2.034,-0.063 4.347,-0.134 7.302,1.199c0.274,0.12 0.388,0.44 0.269,0.708c-0.119,0.275 -0.438,0.392 -0.71,0.271c-2.727,-1.232 -4.906,-1.162 -6.827,-1.102c-1.11,0.036 -2.15,0.067 -3.177,-0.144c-4.013,-0.842 -4.681,-4.654 -4.78,-6.293c-0.178,0.057 -0.344,0.115 -0.51,0.176c-3.121,1.107 -7.517,4.881 -10.946,9.384c-0.83,1.098 -2.228,3.258 -3.472,5.198c-0.132,0.207 -0.384,0.283 -0.606,0.217c-0.427,4.369 0.496,7.765 2.974,8.349c5.774,1.36 5.309,-10.998 17.738,-11.865c13.053,-0.906 12.588,8.182 17.788,5.524c3.856,-1.966 3.38,-7.437 0.32,-12.808m-3.611,7.783c-1.493,-0.008 -2.688,-1.221 -2.681,-2.709c0.011,-1.488 1.227,-2.69 2.714,-2.683c1.487,0.012 2.682,1.228 2.68,2.709c-0.017,1.492 -1.226,2.691 -2.713,2.683m-20.542,-12.796c2.788,-0.99 6.283,-1.861 11.008,-0.816c4.305,0.962 7.917,2.607 11.097,4.056l1.342,0.606c-2.339,-3.641 -5.812,-7.108 -9.885,-9.258c-0.006,0.041 -0.013,0.086 -0.032,0.127l-1.165,2.972c-0.108,0.276 -0.416,0.413 -0.695,0.303c-0.274,-0.109 -0.413,-0.418 -0.301,-0.695l1.164,-2.974c0.025,-0.074 0.071,-0.136 0.129,-0.188c-2.613,-1.228 -5.432,-1.903 -8.334,-1.744c-4.881,0.269 -8.952,3.023 -12.069,6.812c0.064,0.022 0.113,0.051 0.162,0.094l1.967,1.723c0.229,0.195 0.246,0.537 0.054,0.757c-0.193,0.225 -0.536,0.246 -0.759,0.053l-1.968,-1.728c-0.031,-0.03 -0.054,-0.069 -0.082,-0.104c-3.248,4.266 -5.345,9.633 -6.093,14.236c1.112,-1.732 2.274,-3.503 3.018,-4.484c3.541,-4.659 8.143,-8.573 11.442,-9.748" fill="#C4E600"/>
  <path id="svg_2" d="m35.442207,15.594719c-0.615,0.604 -0.953,1.412 -0.956,2.27c-0.009,0.859 0.319,1.67 0.925,2.279c0.608,0.61 1.415,0.949 2.274,0.953c0.854,0.006 1.665,-0.322 2.276,-0.93c0.609,-0.601 0.952,-1.408 0.953,-2.265l0,0.002c0.007,-0.862 -0.324,-1.668 -0.928,-2.282c-0.604,-0.611 -1.408,-0.949 -2.268,-0.953c-0.858,-0.007 -1.666,0.325 -2.276,0.926m2.248,4.463c-0.582,-0.004 -1.131,-0.234 -1.534,-0.646c-0.414,-0.415 -0.637,-0.959 -0.628,-1.54c0.003,-0.584 0.231,-1.128 0.643,-1.537c0.413,-0.406 0.961,-0.631 1.542,-0.627c0.576,0.006 1.12,0.235 1.536,0.647c0.403,0.41 0.631,0.959 0.626,1.541c-0.006,0.58 -0.237,1.123 -0.647,1.531c-0.412,0.41 -0.954,0.633 -1.538,0.631" fill="#E6007E"/>
  <path id="svg_3" d="m36.526207,18.834719c0.007,-0.652 0.528,-1.174 1.175,-1.17c0.655,0 1.172,0.527 1.172,1.18c-0.004,0.648 -0.534,1.17 -1.179,1.168c-0.648,-0.003 -1.172,-0.532 -1.168,-1.178" fill="#E6007E"/>
  <path id="svg_4" d="m21.439207,0.606719c-11.39,0.631 -18.644,14.41 -19.498,24.115c-0.059,0.645 -0.088,1.258 -0.088,1.842c0,3.851 1.229,6.308 3.481,6.84c2.826,0.664 4.32,-1.522 6.047,-4.051c2.233,-3.262 4.997,-7.322 11.842,-7.797c7.193,-0.502 10.135,2.102 12.286,4.004c1.68,1.485 3.136,2.772 5.706,1.463c2.752,-1.404 3.693,-4.58 2.581,-8.715c-2.107,-7.791 -11.626,-18.293 -22.357,-17.701m-15.862,31.785l0,0c-2.004,-0.474 -2.979,-3.31 -2.604,-7.578c0.826,-9.332 7.723,-22.574 18.521,-23.166c10.211,-0.567 19.287,9.479 21.291,16.931c0.576,2.127 1.068,5.928 -2.049,7.516c-1.927,0.986 -2.86,0.168 -4.54,-1.314c-2.288,-2.024 -5.424,-4.795 -13.04,-4.262c-7.35,0.508 -10.397,4.981 -12.632,8.248c-1.796,2.635 -2.918,4.105 -4.947,3.625" fill="#E6007E"/>
  <path id="svg_5" d="m84.299207,53.286719c-0.044,-0.045 -0.085,-0.099 -0.085,-0.17c0,-0.052 0.016,-0.111 0.062,-0.197l0.406,-0.842c0.047,-0.084 0.12,-0.146 0.195,-0.146c0.064,0 0.105,0.01 0.188,0.075c0.519,0.381 1.324,0.677 2.211,0.677c0.984,0 1.65,-0.421 1.65,-1.123c0,-0.619 -0.429,-0.899 -1.502,-1.246c-2.236,-0.754 -2.938,-1.405 -2.938,-2.765c0,-1.393 1.143,-2.664 3.379,-2.664c2.175,0 2.855,1.072 2.855,1.641c0,0.443 -0.439,0.911 -0.962,0.911c-0.185,0 -0.319,-0.071 -0.354,-0.196c-0.196,-0.492 -0.812,-0.912 -1.664,-0.912c-0.981,0 -1.424,0.506 -1.424,1.108c0,0.619 0.459,0.903 1.5,1.246c2.252,0.769 2.949,1.534 2.949,2.75c0,1.584 -1.191,2.668 -3.465,2.668c-1.338,0 -2.35,-0.321 -3.001,-0.815" fill="#E6007E"/>
  <path id="svg_6" d="m94.381207,49.930719l0,2.742c0.36,0 0.556,-0.037 0.716,-0.037c0.126,0 0.184,0.062 0.184,0.172l0,0.801c0,0.185 -0.097,0.271 -0.996,0.271l-1.28,0c-0.229,0 -0.296,-0.035 -0.296,-0.298l0,-8.34c-0.489,0 -0.663,0.038 -0.818,0.038c-0.158,0 -0.273,-0.161 -0.273,-0.582c0,-0.43 0.115,-0.676 0.369,-0.676l2.166,0c0.207,0 0.309,0.058 0.309,0.297c-0.002,0.271 -0.081,3.036 -0.081,5.612" fill="#E6007E"/>
  <path id="svg_7" d="m98.592207,51.376719c0,0.813 0.377,1.221 1.092,1.221c0.773,0 1.503,-0.53 1.503,-1.703l0,-3.441c0,-0.173 0.045,-0.223 0.254,-0.223l1.209,0c0.146,0 0.194,0.05 0.194,0.223l0,3.01c0,0.951 0.074,1.543 0.249,2.209c0.299,0 0.589,-0.051 0.743,-0.051c0.128,0 0.209,0.104 0.209,0.211l0,0.791c0,0.172 -0.142,0.258 -0.987,0.258l-0.916,0c-0.195,0 -0.236,-0.037 -0.291,-0.195c-0.105,-0.312 -0.177,-0.682 -0.236,-1.114c-0.504,0.927 -1.228,1.519 -2.562,1.519c-1.312,0 -2.137,-0.824 -2.137,-2.358l0,-3.278c-0.38,0 -0.653,0.036 -0.812,0.036c-0.174,0 -0.265,-0.176 -0.265,-0.569c0,-0.418 0.091,-0.689 0.313,-0.689l2.143,0c0.208,0 0.296,0.05 0.296,0.223l0,3.92l0.001,0z" fill="#E6007E"/>
  <path id="svg_8" d="m107.096207,48.538719c0.362,-0.789 1.104,-1.543 2.535,-1.543c1.313,0 2.14,0.826 2.14,2.357l0,3.316c0.471,0 0.639,-0.038 0.803,-0.038c0.119,0 0.177,0.067 0.177,0.174l0,0.804c0,0.186 -0.146,0.271 -1.036,0.271l-1.312,0c-0.229,0 -0.291,-0.035 -0.291,-0.296l0,-3.873c0,-0.838 -0.363,-1.223 -1.095,-1.223c-0.815,0 -1.487,0.543 -1.487,1.74l0,3.43c0,0.176 -0.047,0.222 -0.258,0.222l-1.221,0c-0.148,0 -0.193,-0.046 -0.193,-0.222l0,-2.91c0,-0.95 -0.074,-1.534 -0.248,-2.295c-0.418,0 -0.648,0.035 -0.81,0.035c-0.177,0 -0.259,-0.17 -0.259,-0.566c0,-0.42 0.082,-0.689 0.322,-0.689l1.705,0c0.209,0 0.234,0.049 0.289,0.198c0.093,0.319 0.177,0.676 0.239,1.108m2.868,-4.555c0.036,-0.049 0.061,-0.062 0.107,-0.062c0.052,0 0.086,0.013 0.138,0.052l0.552,0.407c0.053,0.034 0.053,0.086 0.053,0.11c0,0.06 -0.029,0.111 -0.065,0.146l-1.671,1.694c-0.121,0.109 -0.271,0.146 -0.526,0.146c-0.151,0 -0.297,-0.023 -0.41,-0.1c-0.477,-0.323 -1.176,-1.025 -1.534,-1.543c-0.084,-0.122 -0.119,-0.198 -0.119,-0.284c0,-0.282 0.562,-0.591 0.857,-0.591c0.204,0 0.271,0.061 0.357,0.211c0.244,0.432 0.523,0.8 0.883,1.182l1.378,-1.368z" fill="#E6007E"/>
  <path id="svg_9" d="m120.298207,52.620719c0.129,0 0.187,0.062 0.187,0.174l0,0.792c0,0.22 -0.021,0.293 -0.746,0.293l-0.96,0c-0.22,0 -0.29,-0.073 -0.367,-0.259c-0.126,-0.26 -0.236,-0.567 -0.285,-0.864c-0.517,0.853 -1.195,1.31 -2.341,1.31c-1.272,0 -2.114,-0.654 -2.114,-1.961c0,-1.445 1.051,-2.308 2.795,-2.308c0.494,0 0.873,0.036 1.264,0.099c0.02,-0.246 0.027,-0.531 0.027,-0.927c0,-0.526 -0.311,-0.802 -0.979,-0.802c-0.658,0 -1.027,0.259 -1.113,0.691c-0.052,0.258 -0.252,0.383 -0.588,0.383c-0.519,0 -0.96,-0.283 -0.96,-0.643c0,-0.925 1.009,-1.604 2.668,-1.604c1.944,0 2.607,0.716 2.607,1.914c0,0.74 -0.086,1.912 -0.086,2.617c0,0.44 0.099,0.883 0.224,1.144c0.453,0.001 0.611,-0.049 0.767,-0.049m-3.562,-1.799c-0.958,0 -1.401,0.432 -1.401,1.06c0,0.595 0.323,0.864 0.888,0.864c0.659,0 1.192,-0.432 1.446,-1.035c0,-0.309 0.015,-0.557 0.045,-0.803c-0.324,-0.063 -0.592,-0.086 -0.978,-0.086m-0.296,-4.381c-0.049,0.024 -0.106,0.049 -0.159,0.049c-0.048,0 -0.098,-0.024 -0.168,-0.072l-0.544,-0.284c-0.035,-0.024 -0.045,-0.062 -0.045,-0.099c0,-0.063 0.03,-0.102 0.135,-0.16c0.49,-0.309 1.164,-1.051 1.607,-1.743c0.099,-0.147 0.208,-0.207 0.429,-0.207c0.475,0 1.02,0.222 1.02,0.53c0,0.086 -0.031,0.172 -0.119,0.285c-0.494,0.601 -1.536,1.379 -2.156,1.701" fill="#E6007E"/>
  <path id="svg_10" d="m123.570207,49.596719l0.59,0c0.345,0 1.332,-1.416 1.724,-2.193c0.062,-0.135 0.125,-0.174 0.218,-0.174l1.509,0c0.098,0 0.132,0.06 0.132,0.137c0,0.257 -1.554,2.564 -2.094,2.837c0.214,0.136 0.405,0.358 0.681,0.791l1.045,1.674c0.303,0 0.654,-0.036 0.875,-0.036c0.106,0 0.17,0.075 0.17,0.188l0,0.802c0,0.136 -0.099,0.259 -0.22,0.259l-2.028,0c-0.026,0 -0.125,-0.037 -0.187,-0.162l-1.269,-2.306c-0.221,-0.407 -0.383,-0.543 -0.602,-0.543l-0.544,0l0,2.728c0,0.223 -0.06,0.283 -0.271,0.283l-1.138,0c-0.2,0 -0.265,-0.037 -0.265,-0.259l0,-8.379c-0.489,0 -0.661,0.038 -0.819,0.038c-0.159,0 -0.271,-0.163 -0.271,-0.58c0,-0.432 0.111,-0.68 0.367,-0.68l2.164,0c0.211,0 0.309,0.063 0.309,0.297c0.002,0.247 -0.059,2.159 -0.076,5.278" fill="#E6007E"/>
  <path id="svg_11" d="m129.110207,50.484719c0,-2.378 1.526,-3.49 3.254,-3.49c1.719,0 3.264,1.112 3.264,3.49c0,2.446 -1.545,3.581 -3.264,3.581c-1.727,0 -3.254,-1.135 -3.254,-3.581m4.734,0.064c0,-1.664 -0.597,-2.244 -1.479,-2.244c-0.899,0 -1.498,0.58 -1.498,2.244c0,1.68 0.599,2.211 1.498,2.211c0.882,0 1.479,-0.532 1.479,-2.211" fill="#E6007E"/>
  <path id="svg_12" d="m140.065207,52.276719c0.022,0.112 0.056,0.184 0.192,0.184c0.102,0 0.175,-0.061 0.228,-0.196c0.301,-0.851 1.248,-4.222 1.248,-4.786c0,-0.188 0.051,-0.246 0.243,-0.246l1.354,0c0.197,0 0.235,0.108 0.235,0.209c0,0.422 -1.624,5.539 -1.979,6.207c-0.076,0.137 -0.16,0.229 -0.355,0.229l-2.178,0c-0.194,0 -0.267,-0.105 -0.305,-0.243l-1.462,-5.181c-0.334,0 -0.571,0.049 -0.727,0.049c-0.177,0 -0.261,-0.184 -0.261,-0.579c0,-0.421 0.101,-0.69 0.332,-0.69l1.832,0c0.207,0 0.26,0.049 0.293,0.209l1.31,4.834z" fill="#E6007E"/>
  <path id="svg_13" d="m150.107207,34.797719l-149.546,7.364l0,20.615l150.111,0l0,-28.006l-0.565,0.027zm-0.509,1.1l0,25.803l-147.965,0l0,-18.518c1.011,-0.049 146.847,-7.23 147.965,-7.285" fill="#E6007E"/>
  <path stroke="null" d="m0.624502,0.588717c0,3.36577 0.605901,11.00552 3.268391,21.036099c2.590994,9.761194 7.939433,19.889712 20.264023,28.609103c7.490947,5.299689 17.911995,9.933808 25.493449,11.359497c4.436705,0.834318 8.497816,0.841444 14.38092,0.841444c7.844138,0 16.964672,-0.518315 29.415518,-2.10361c17.608157,-2.241955 26.912717,-3.576895 44.450116,-7.572998c5.264814,-1.199651 8.382593,-1.887472 9.805173,-2.10361c1.272366,-0.193323 1.961035,0 1.961035,-0.420722l0.653678,0" id="svg_14" fill-opacity="null" stroke-opacity="null" stroke-width="null" fill="none"/>
 </g>
</svg>